<svg xmlns="http://www.w3.org/2000/svg" viewBox="-45 233.88621502685544 790.6380170898437 237.1521025722467"> <svg id="Layer_2" dataName="Layer 2" xmlns="http://www.w3.org/2000/svg" xmlns:xlink="http://www.w3.org/1999/xlink" viewBox="242.02989196777344 175.47474670410156 373.361328125 359.88531494140625" height="97.15210257224668" width="100" y="303.88621502685544" x="25" preserveAspectRatio="xMinYMin" style="overflow: visible;"><linearGradient id="linear-gradient" x1="87.13" y1="775.17" x2="566.76" y2="86.96" gradientUnits="userSpaceOnUse" style=""><stop offset="0" stop-color="#08f"></stop><stop offset="1" stop-color="#00ffc4"></stop></linearGradient><linearGradient id="linear-gradient-2" x1="56.33" y1="736.61" x2="526.48" y2="61.99" xlink:href="#linear-gradient" style=""></linearGradient><linearGradient id="linear-gradient-3" x1="183.02" y1="838.32" x2="661.17" y2="152.23" xlink:href="#linear-gradient" style=""></linearGradient><linearGradient id="linear-gradient-4" x1="377.68" y1="506.54" x2="322.94" y2="464.58" gradientUnits="userSpaceOnUse" style=""><stop offset=".02" stop-color="#000" stop-opacity="0"></stop><stop offset=".9" stop-color="#000"></stop></linearGradient><path class="cls-4" d="M446.37,324.06l-32.05-19.12-127.72,127.73-18.06,18.07c-3.73,3.73-2.94,9.99,1.61,12.67l17.82,10.51c3.17,1.87,7.21,1.36,9.81-1.25l21.01-21.02,127.58-127.59Z" style="fill: #D4DEFB; fill-opacity: 1;"></path><path class="cls-1" d="M348.06,340.1l-32.26-18.91-38.35,38.35.71-77.32c0-.37.21-.71.53-.89l125.44-70.91c.16-.09.33-.13.51-.13s.37.05.53.14l104.67,61.71,25.43-25.44-112.4-66.27c-11.01-6.49-24.75-6.61-35.87-.33l-125.44,70.91c-11.12,6.29-18.1,18.13-18.22,30.9l-.99,112.76-.03.03-.29,31.29c0,.06,0,.12,0,.17-.03,7.37,8.99,11,14.2,5.79l20.77-20.77,71.08-71.09Z" style="fill: #FFFFFF; fill-opacity: 1;"></path><path class="cls-3" d="M612.61,210.99l-59.23,15.83c-1.83.49-2.25,2.9-.69,3.97l14.34,9.5-225.8,224.59h0c-12.88,12.89-10.14,34.46,5.56,43.71h0l37,21.81c5.6,3.3,11.91,4.96,18.22,4.96s12.19-1.54,17.65-4.63l125.44-70.91c11.12-6.29,18.1-18.13,18.22-30.9l1.04-113.97-35.16,35.17-.72,78.48c0,.37-.21.71-.53.9l-125.44,70.91c-.32.18-.72.18-1.04,0l-29.26-17.25,223.64-222.43h0l14.1,9.77c1.44,1,3.43,0,3.49-1.75l1.95-55.53c.05-1.49-1.35-2.61-2.79-2.23Z" style="fill: #4A73E8; fill-opacity: 1;"></path><path class="cls-2" d="M392.51,495.12l-24.82,25.8-3.43-2.02c-8.85-5.22-10.4-17.39-3.14-24.66l11.08-11.09,20.3,11.97Z" style="fill: url(#linear-gradient-4); fill-opacity: 1;"></path></svg> <svg y="338.097" viewBox="2.380000114440918 8.789999961853027 533.0800170898438 27.96999740600586" x="142.558" height="27.96999740600586" width="533.0800170898438" style="overflow: visible;"><g fill="#ffffff" fill-opacity="1" style=""><path d="M5.51 36.57L4.49 36.57Q3.36 36.57 2.87 36.27Q2.38 35.98 2.38 35.43L2.38 35.43L2.38 10.20Q2.38 9.65 2.87 9.36Q3.36 9.06 4.49 9.06L4.49 9.06L5.51 9.06Q6.60 9.06 7.09 9.36Q7.58 9.65 7.58 10.20L7.58 10.20L7.58 35.43Q7.58 35.98 7.09 36.27Q6.60 36.57 5.51 36.57L5.51 36.57ZM23.36 36.57L22.66 36.57Q21.53 36.57 21.04 36.27Q20.55 35.98 20.55 35.43L20.55 35.43L20.55 10.20Q20.55 9.06 22.62 9.06L22.62 9.06L23.79 9.06Q24.85 9.06 25.41 9.30Q25.98 9.53 26.25 10.16L26.25 10.16L33.05 24.03Q33.29 24.50 33.52 25.18Q33.75 25.86 33.95 26.49L33.95 26.49L34.15 26.45Q34.07 25.86 34.01 25.18Q33.95 24.50 33.95 23.79L33.95 23.79L33.95 10.20Q33.95 9.65 34.44 9.36Q34.93 9.06 36.02 9.06L36.02 9.06L36.72 9.06Q37.86 9.06 38.35 9.36Q38.83 9.65 38.83 10.20L38.83 10.20L38.83 35.43Q38.83 36.57 36.76 36.57L36.76 36.57L35.55 36.57Q34.50 36.57 33.97 36.33Q33.44 36.10 33.13 35.47L33.13 35.47L26.29 21.45Q26.10 20.98 25.86 20.32Q25.63 19.65 25.43 19.03L25.43 19.03L25.24 19.07Q25.32 19.69 25.37 20.37Q25.43 21.06 25.43 21.72L25.43 21.72L25.43 35.43Q25.43 35.98 24.94 36.27Q24.46 36.57 23.36 36.57L23.36 36.57ZM61.34 36.76L61.34 36.76Q55.91 36.76 53.43 33.36Q50.94 29.97 50.94 22.74L50.94 22.74Q50.94 15.74 53.52 12.31Q56.10 8.87 61.49 8.87L61.49 8.87Q62.59 8.87 63.56 9.02Q64.54 9.18 65.13 9.38L65.13 9.38Q66.14 9.69 66.14 10.70L66.14 10.70Q66.14 11.33 66.02 12.03Q65.91 12.74 65.63 13.24Q65.36 13.75 64.97 13.75L64.97 13.75Q64.50 13.75 63.68 13.54Q62.86 13.32 61.65 13.32L61.65 13.32Q58.80 13.32 57.53 15.55Q56.26 17.78 56.26 22.78L56.26 22.78Q56.26 27.78 57.57 30.02Q58.88 32.27 61.77 32.27L61.77 32.27Q63.25 32.27 64.09 32.00Q64.93 31.72 65.40 31.72L65.40 31.72Q65.99 31.72 66.30 32.70Q66.61 33.68 66.61 34.65L66.61 34.65Q66.61 35.08 66.40 35.45Q66.18 35.83 65.59 36.06L65.59 36.06Q64.93 36.33 63.80 36.55Q62.66 36.76 61.34 36.76ZM80.68 36.57L79.70 36.57Q78.57 36.57 78.08 36.27Q77.59 35.98 77.59 35.43L77.59 35.43L77.59 10.59Q77.59 9.14 79.03 9.14L79.03 9.14L85.32 9.14Q89.43 9.14 91.44 11.19Q93.45 13.24 93.45 17.46L93.45 17.46Q93.45 20.08 92.26 21.74Q91.07 23.40 89.31 23.68L89.31 23.68L89.31 23.83Q91.15 24.57 91.89 26.96L91.89 26.96L94.31 34.73Q94.47 35.36 94.47 35.71L94.47 35.71Q94.47 36.22 94.02 36.39Q93.57 36.57 92.43 36.57L92.43 36.57L91.34 36.57Q90.48 36.57 89.95 36.35Q89.43 36.14 89.27 35.59L89.27 35.59L87.28 28.25Q86.85 26.76 86.20 26.21Q85.56 25.67 84.23 25.67L84.23 25.67L82.78 25.67L82.78 35.43Q82.78 35.98 82.30 36.27Q81.81 36.57 80.68 36.57L80.68 36.57ZM82.78 13.52L82.78 21.29L85.36 21.29Q87.00 21.29 87.69 20.39Q88.37 19.49 88.37 17.46L88.37 17.46Q88.37 15.39 87.69 14.46Q87.00 13.52 85.36 13.52L85.36 13.52L82.78 13.52ZM118.02 36.49L106.69 36.49Q105.33 36.49 105.33 35.04L105.33 35.04L105.33 10.59Q105.33 9.14 106.69 9.14L106.69 9.14L118.02 9.14Q119.08 9.14 119.08 10.82L119.08 10.82L119.08 11.84Q119.08 13.52 118.02 13.52L118.02 13.52L110.52 13.52L110.52 20.32L117.24 20.32Q118.26 20.32 118.26 22.00L118.26 22.00L118.26 23.01Q118.26 24.69 117.24 24.69L117.24 24.69L110.52 24.69L110.52 32.11L118.02 32.11Q119.08 32.11 119.08 33.79L119.08 33.79L119.08 34.81Q119.08 36.49 118.02 36.49L118.02 36.49ZM132.99 36.57L132.28 36.57Q131.15 36.57 130.66 36.27Q130.17 35.98 130.17 35.43L130.17 35.43L130.17 10.20Q130.17 9.65 130.66 9.36Q131.15 9.06 132.28 9.06L132.28 9.06L133.34 9.06Q134.59 9.06 135.12 9.28Q135.64 9.49 135.88 10.04L135.88 10.04L140.10 20.04Q140.37 20.71 140.57 21.29Q140.76 21.88 140.88 22.39L140.88 22.39Q141.00 21.88 141.17 21.29Q141.35 20.71 141.62 20.04L141.62 20.04L145.88 10.04Q146.11 9.49 146.64 9.28Q147.17 9.06 148.42 9.06L148.42 9.06L149.51 9.06Q150.61 9.06 151.10 9.36Q151.58 9.65 151.58 10.20L151.58 10.20L151.58 35.43Q151.58 35.98 151.10 36.27Q150.61 36.57 149.51 36.57L149.51 36.57L148.77 36.57Q147.68 36.57 147.19 36.27Q146.70 35.98 146.70 35.43L146.70 35.43L146.70 21.96Q146.70 21.37 146.74 20.78Q146.78 20.20 146.90 19.61L146.90 19.61L146.74 19.53Q146.31 20.67 145.88 21.68L145.88 21.68L143.34 27.70Q143.11 28.21 142.60 28.40Q142.09 28.60 141.19 28.60L141.19 28.60L140.57 28.60Q139.67 28.60 139.12 28.40Q138.57 28.21 138.34 27.70L138.34 27.70L135.88 21.68Q135.68 21.14 135.49 20.61Q135.29 20.08 135.06 19.53L135.06 19.53L134.90 19.61Q135.06 20.75 135.06 21.96L135.06 21.96L135.06 35.43Q135.06 35.98 134.57 36.27Q134.08 36.57 132.99 36.57L132.99 36.57ZM177.25 36.49L165.92 36.49Q164.55 36.49 164.55 35.04L164.55 35.04L164.55 10.59Q164.55 9.14 165.92 9.14L165.92 9.14L177.25 9.14Q178.31 9.14 178.31 10.82L178.31 10.82L178.31 11.84Q178.31 13.52 177.25 13.52L177.25 13.52L169.75 13.52L169.75 20.32L176.47 20.32Q177.49 20.32 177.49 22.00L177.49 22.00L177.49 23.01Q177.49 24.69 176.47 24.69L176.47 24.69L169.75 24.69L169.75 32.11L177.25 32.11Q178.31 32.11 178.31 33.79L178.31 33.79L178.31 34.81Q178.31 36.49 177.25 36.49L177.25 36.49ZM192.21 36.57L191.51 36.57Q190.38 36.57 189.89 36.27Q189.40 35.98 189.40 35.43L189.40 35.43L189.40 10.20Q189.40 9.06 191.47 9.06L191.47 9.06L192.64 9.06Q193.70 9.06 194.27 9.30Q194.83 9.53 195.11 10.16L195.11 10.16L201.90 24.03Q202.14 24.50 202.37 25.18Q202.61 25.86 202.80 26.49L202.80 26.49L203.00 26.45Q202.92 25.86 202.86 25.18Q202.80 24.50 202.80 23.79L202.80 23.79L202.80 10.20Q202.80 9.65 203.29 9.36Q203.78 9.06 204.87 9.06L204.87 9.06L205.58 9.06Q206.71 9.06 207.20 9.36Q207.68 9.65 207.68 10.20L207.68 10.20L207.68 35.43Q207.68 36.57 205.61 36.57L205.61 36.57L204.40 36.57Q203.35 36.57 202.82 36.33Q202.29 36.10 201.98 35.47L201.98 35.47L195.14 21.45Q194.95 20.98 194.71 20.32Q194.48 19.65 194.28 19.03L194.28 19.03L194.09 19.07Q194.17 19.69 194.23 20.37Q194.28 21.06 194.28 21.72L194.28 21.72L194.28 35.43Q194.28 35.98 193.80 36.27Q193.31 36.57 192.21 36.57L192.21 36.57ZM227.41 36.57L226.32 36.57Q224.25 36.57 224.25 35.43L224.25 35.43L224.25 13.52L219.44 13.52Q218.43 13.52 218.43 11.84L218.43 11.84L218.43 10.82Q218.43 9.14 219.44 9.14L219.44 9.14L234.21 9.14Q235.27 9.14 235.27 10.82L235.27 10.82L235.27 11.84Q235.27 13.52 234.21 13.52L234.21 13.52L229.45 13.52L229.45 35.43Q229.45 36.57 227.41 36.57L227.41 36.57ZM245.23 36.57L243.63 36.57Q242.77 36.57 242.40 36.33Q242.03 36.10 242.03 35.71L242.03 35.71Q242.03 35.59 242.05 35.43Q242.06 35.28 242.14 34.89L242.14 34.89L248.32 10.27Q248.47 9.61 249.00 9.34Q249.53 9.06 250.46 9.06L250.46 9.06L252.81 9.06Q253.75 9.06 254.27 9.34Q254.80 9.61 254.96 10.27L254.96 10.27L261.13 34.89Q261.25 35.51 261.25 35.71L261.25 35.71Q261.25 36.57 259.65 36.57L259.65 36.57L258.08 36.57Q257.34 36.57 256.83 36.39Q256.32 36.22 256.21 35.67L256.21 35.67L255.07 30.43L248.20 30.43L247.07 35.67Q246.95 36.22 246.42 36.39Q245.89 36.57 245.23 36.57L245.23 36.57ZM251.05 17.23L251.05 17.23L249.06 26.33L254.18 26.33L252.14 17.23Q252.03 16.53 251.91 15.82Q251.79 15.12 251.71 14.46L251.71 14.46L251.52 14.46Q251.40 15.12 251.28 15.82Q251.17 16.53 251.05 17.23ZM283.24 36.49L273.16 36.49Q271.80 36.49 271.80 35.04L271.80 35.04L271.80 10.20Q271.80 9.65 272.28 9.36Q272.77 9.06 273.90 9.06L273.90 9.06L274.88 9.06Q276.01 9.06 276.50 9.36Q276.99 9.65 276.99 10.20L276.99 10.20L276.99 32.11L283.24 32.11Q284.26 32.11 284.26 33.79L284.26 33.79L284.26 34.81Q284.26 36.49 283.24 36.49L283.24 36.49ZM318.13 36.76L318.13 36.76Q312.82 36.76 310.32 33.36Q307.82 29.97 307.82 22.74L307.82 22.74Q307.82 15.74 310.49 12.31Q313.17 8.87 318.83 8.87L318.83 8.87Q320.04 8.87 321.18 9.02Q322.31 9.18 322.90 9.38L322.90 9.38Q323.91 9.73 323.91 10.70L323.91 10.70Q323.91 11.33 323.78 12.03Q323.64 12.74 323.35 13.24Q323.05 13.75 322.62 13.75L322.62 13.75Q322.19 13.75 321.29 13.54Q320.40 13.32 318.99 13.32L318.99 13.32Q315.90 13.32 314.52 15.55Q313.13 17.78 313.13 22.78L313.13 22.78Q313.13 26.29 313.68 28.40Q314.22 30.51 315.43 31.45Q316.65 32.39 318.64 32.39L318.64 32.39Q319.46 32.39 320.55 32.19L320.55 32.19L320.55 25.20L317.90 25.20Q316.84 25.20 316.84 23.52L316.84 23.52L316.84 22.54Q316.84 20.86 317.90 20.86L317.90 20.86L324.15 20.86Q325.51 20.86 325.51 22.31L325.51 22.31L325.51 33.68Q325.51 34.65 324.42 35.28L324.42 35.28Q323.29 35.94 321.61 36.35Q319.93 36.76 318.13 36.76ZM340.67 36.57L339.70 36.57Q338.56 36.57 338.07 36.27Q337.59 35.98 337.59 35.43L337.59 35.43L337.59 10.59Q337.59 9.14 339.03 9.14L339.03 9.14L345.32 9.14Q349.42 9.14 351.44 11.19Q353.45 13.24 353.45 17.46L353.45 17.46Q353.45 20.08 352.26 21.74Q351.06 23.40 349.31 23.68L349.31 23.68L349.31 23.83Q351.14 24.57 351.88 26.96L351.88 26.96L354.31 34.73Q354.46 35.36 354.46 35.71L354.46 35.71Q354.46 36.22 354.01 36.39Q353.56 36.57 352.43 36.57L352.43 36.57L351.34 36.57Q350.48 36.57 349.95 36.35Q349.42 36.14 349.27 35.59L349.27 35.59L347.27 28.25Q346.84 26.76 346.20 26.21Q345.56 25.67 344.23 25.67L344.23 25.67L342.78 25.67L342.78 35.43Q342.78 35.98 342.29 36.27Q341.80 36.57 340.67 36.57L340.67 36.57ZM342.78 13.52L342.78 21.29L345.36 21.29Q347.00 21.29 347.68 20.39Q348.37 19.49 348.37 17.46L348.37 17.46Q348.37 15.39 347.68 14.46Q347.00 13.52 345.36 13.52L345.36 13.52L342.78 13.52ZM378.02 36.49L366.69 36.49Q365.32 36.49 365.32 35.04L365.32 35.04L365.32 10.59Q365.32 9.14 366.69 9.14L366.69 9.14L378.02 9.14Q379.08 9.14 379.08 10.82L379.08 10.82L379.08 11.84Q379.08 13.52 378.02 13.52L378.02 13.52L370.52 13.52L370.52 20.32L377.24 20.32Q378.26 20.32 378.26 22.00L378.26 22.00L378.26 23.01Q378.26 24.69 377.24 24.69L377.24 24.69L370.52 24.69L370.52 32.11L378.02 32.11Q379.08 32.11 379.08 33.79L379.08 33.79L379.08 34.81Q379.08 36.49 378.02 36.49L378.02 36.49ZM390.95 36.57L389.35 36.57Q388.49 36.57 388.12 36.33Q387.75 36.10 387.75 35.71L387.75 35.71Q387.75 35.59 387.77 35.43Q387.79 35.28 387.87 34.89L387.87 34.89L394.04 10.27Q394.20 9.61 394.72 9.34Q395.25 9.06 396.19 9.06L396.19 9.06L398.53 9.06Q399.47 9.06 400.00 9.34Q400.52 9.61 400.68 10.27L400.68 10.27L406.85 34.89Q406.97 35.51 406.97 35.71L406.97 35.71Q406.97 36.57 405.37 36.57L405.37 36.57L403.81 36.57Q403.06 36.57 402.56 36.39Q402.05 36.22 401.93 35.67L401.93 35.67L400.80 30.43L393.92 30.43L392.79 35.67Q392.67 36.22 392.14 36.39Q391.62 36.57 390.95 36.57L390.95 36.57ZM396.77 17.23L396.77 17.23L394.78 26.33L399.90 26.33L397.87 17.23Q397.75 16.53 397.63 15.82Q397.52 15.12 397.44 14.46L397.44 14.46L397.24 14.46Q397.13 15.12 397.01 15.82Q396.89 16.53 396.77 17.23ZM422.71 36.57L421.62 36.57Q419.55 36.57 419.55 35.43L419.55 35.43L419.55 13.52L414.74 13.52Q413.73 13.52 413.73 11.84L413.73 11.84L413.73 10.82Q413.73 9.14 414.74 9.14L414.74 9.14L429.51 9.14Q430.57 9.14 430.57 10.82L430.57 10.82L430.57 11.84Q430.57 13.52 429.51 13.52L429.51 13.52L424.75 13.52L424.75 35.43Q424.75 36.57 422.71 36.57L422.71 36.57ZM444.12 36.57L443.42 36.57Q442.29 36.57 441.80 36.27Q441.31 35.98 441.31 35.43L441.31 35.43L441.31 10.20Q441.31 9.06 443.38 9.06L443.38 9.06L444.55 9.06Q445.61 9.06 446.17 9.30Q446.74 9.53 447.01 10.16L447.01 10.16L453.81 24.03Q454.05 24.50 454.28 25.18Q454.52 25.86 454.71 26.49L454.71 26.49L454.91 26.45Q454.83 25.86 454.77 25.18Q454.71 24.50 454.71 23.79L454.71 23.79L454.71 10.20Q454.71 9.65 455.20 9.36Q455.69 9.06 456.78 9.06L456.78 9.06L457.48 9.06Q458.62 9.06 459.11 9.36Q459.59 9.65 459.59 10.20L459.59 10.20L459.59 35.43Q459.59 36.57 457.52 36.57L457.52 36.57L456.31 36.57Q455.26 36.57 454.73 36.33Q454.20 36.10 453.89 35.47L453.89 35.47L447.05 21.45Q446.86 20.98 446.62 20.32Q446.39 19.65 446.19 19.03L446.19 19.03L446.00 19.07Q446.08 19.69 446.14 20.37Q446.19 21.06 446.19 21.72L446.19 21.72L446.19 35.43Q446.19 35.98 445.71 36.27Q445.22 36.57 444.12 36.57L444.12 36.57ZM485.26 36.49L473.93 36.49Q472.57 36.49 472.57 35.04L472.57 35.04L472.57 10.59Q472.57 9.14 473.93 9.14L473.93 9.14L485.26 9.14Q486.32 9.14 486.32 10.82L486.32 10.82L486.32 11.84Q486.32 13.52 485.26 13.52L485.26 13.52L477.76 13.52L477.76 20.32L484.48 20.32Q485.50 20.32 485.50 22.00L485.50 22.00L485.50 23.01Q485.50 24.69 484.48 24.69L484.48 24.69L477.76 24.69L477.76 32.11L485.26 32.11Q486.32 32.11 486.32 33.79L486.32 33.79L486.32 34.81Q486.32 36.49 485.26 36.49L485.26 36.49ZM502.49 36.76L502.49 36.76Q501.01 36.76 499.60 36.39Q498.19 36.02 497.06 35.40L497.06 35.40Q496.44 35.08 496.01 34.69Q495.58 34.30 495.58 33.79L495.58 33.79Q495.58 33.44 495.73 32.74Q495.89 32.04 496.20 31.43Q496.51 30.82 496.98 30.82L496.98 30.82Q497.33 30.82 498.10 31.23Q498.86 31.64 499.97 32.04Q501.08 32.43 502.45 32.43L502.45 32.43Q503.82 32.43 504.87 31.68Q505.93 30.94 505.93 29.11L505.93 29.11Q505.93 27.89 505.34 27.09Q504.76 26.29 503.80 25.73Q502.84 25.16 501.75 24.57L501.75 24.57Q500.11 23.68 498.82 22.66Q497.53 21.64 496.79 20.20Q496.04 18.75 496.04 16.56L496.04 16.56Q496.04 14.14 497.10 12.40Q498.15 10.67 500.01 9.73Q501.87 8.79 504.21 8.79L504.21 8.79Q505.50 8.79 506.85 9.10Q508.20 9.42 509.13 10.00L509.13 10.00Q509.48 10.20 509.76 10.49Q510.03 10.78 510.03 11.21L510.03 11.21Q510.03 11.64 509.89 12.35Q509.76 13.05 509.50 13.60Q509.25 14.14 508.86 14.14L508.86 14.14Q508.55 14.14 507.88 13.89Q507.22 13.63 506.32 13.38Q505.42 13.13 504.44 13.13L504.44 13.13Q502.61 13.13 501.77 14.04Q500.93 14.96 500.93 16.21L500.93 16.21Q500.93 17.50 501.59 18.26Q502.26 19.03 503.29 19.59Q504.33 20.16 505.46 20.78L505.46 20.78Q507.06 21.68 508.27 22.70Q509.48 23.71 510.17 25.14Q510.85 26.57 510.85 28.71L510.85 28.71Q510.85 30.98 509.89 32.80Q508.94 34.61 507.08 35.69Q505.23 36.76 502.49 36.76ZM527.10 36.76L527.10 36.76Q525.62 36.76 524.21 36.39Q522.81 36.02 521.67 35.40L521.67 35.40Q521.05 35.08 520.62 34.69Q520.19 34.30 520.19 33.79L520.19 33.79Q520.19 33.44 520.35 32.74Q520.50 32.04 520.81 31.43Q521.13 30.82 521.60 30.82L521.60 30.82Q521.95 30.82 522.71 31.23Q523.47 31.64 524.58 32.04Q525.70 32.43 527.06 32.43L527.06 32.43Q528.43 32.43 529.49 31.68Q530.54 30.94 530.54 29.11L530.54 29.11Q530.54 27.89 529.96 27.09Q529.37 26.29 528.41 25.73Q527.46 25.16 526.36 24.57L526.36 24.57Q524.72 23.68 523.43 22.66Q522.14 21.64 521.40 20.20Q520.66 18.75 520.66 16.56L520.66 16.56Q520.66 14.14 521.71 12.40Q522.77 10.67 524.62 9.73Q526.48 8.79 528.82 8.79L528.82 8.79Q530.11 8.79 531.46 9.10Q532.81 9.42 533.75 10.00L533.75 10.00Q534.10 10.20 534.37 10.49Q534.64 10.78 534.64 11.21L534.64 11.21Q534.64 11.64 534.51 12.35Q534.37 13.05 534.12 13.60Q533.86 14.14 533.47 14.14L533.47 14.14Q533.16 14.14 532.50 13.89Q531.83 13.63 530.93 13.38Q530.03 13.13 529.06 13.13L529.06 13.13Q527.22 13.13 526.38 14.04Q525.54 14.96 525.54 16.21L525.54 16.21Q525.54 17.50 526.21 18.26Q526.87 19.03 527.90 19.59Q528.94 20.16 530.07 20.78L530.07 20.78Q531.67 21.68 532.89 22.70Q534.10 23.71 534.78 25.14Q535.46 26.57 535.46 28.71L535.46 28.71Q535.46 30.98 534.51 32.80Q533.55 34.61 531.69 35.69Q529.84 36.76 527.10 36.76Z" transform="translate(0, 0)"></path></g></svg></svg>